<svg xmlns="http://www.w3.org/2000/svg" version="1.1" width="39px" height="39px" style="shape-rendering:geometricPrecision; text-rendering:geometricPrecision; image-rendering:optimizeQuality; fill-rule:evenodd; clip-rule:evenodd" xmlns:xlink="http://www.w3.org/1999/xlink">
<g><path style="opacity:0.749" fill="red" d="M -0.5,-0.5 C 0.166667,-0.5 0.833333,-0.5 1.5,-0.5C 2.16667,0.833333 2.83333,0.833333 3.5,-0.5C 4.16667,-0.5 4.83333,-0.5 5.5,-0.5C 5.83333,0.833333 6.16667,0.833333 6.5,-0.5C 8.83333,-0.5 11.1667,-0.5 13.5,-0.5C 13.8333,0.833333 14.1667,0.833333 14.5,-0.5C 15.1667,-0.5 15.8333,-0.5 16.5,-0.5C 16.8333,0.833333 17.1667,0.833333 17.5,-0.5C 18.5,-0.5 19.5,-0.5 20.5,-0.5C 20.8333,0.833333 21.1667,0.833333 21.5,-0.5C 23.5,-0.5 25.5,-0.5 27.5,-0.5C 27.8333,0.833333 28.1667,0.833333 28.5,-0.5C 29.5,-0.5 30.5,-0.5 31.5,-0.5C 31.8333,0.833333 32.1667,0.833333 32.5,-0.5C 34.1667,-0.5 35.8333,-0.5 37.5,-0.5C 37.3284,0.491622 37.6618,1.15829 38.5,1.5C 38.5,13.5 38.5,25.5 38.5,37.5C 37.5084,37.3284 36.8417,37.6618 36.5,38.5C 35.1667,38.5 33.8333,38.5 32.5,38.5C 29.8333,37.1667 27.1667,37.1667 24.5,38.5C 22.8333,38.5 21.1667,38.5 19.5,38.5C 16.8333,37.1667 14.1667,37.1667 11.5,38.5C 10.1667,38.5 8.83333,38.5 7.5,38.5C 5.0521,37.5269 2.38544,37.1936 -0.5,37.5C -0.5,24.8333 -0.5,12.1667 -0.5,-0.5 Z M 4.5,4.5 C 4.5,4.83333 4.5,5.16667 4.5,5.5C 3.32496,5.71901 2.32496,5.38568 1.5,4.5C 2.42463,3.43764 3.42463,3.43764 4.5,4.5 Z M 16.5,4.5 C 14.0336,5.63406 11.367,5.80073 8.5,5C 9,4.5 9.5,4 10,3.5C 12.1163,3.42909 14.2829,3.76242 16.5,4.5 Z M 23.5,3.5 C 25.3715,4.35888 27.0382,4.69221 28.5,4.5C 25.8938,5.65173 23.2272,5.8184 20.5,5C 21.7375,4.76791 22.7375,4.26791 23.5,3.5 Z M 32.5,4.5 C 33.9669,3.7084 35.3002,3.7084 36.5,4.5C 35.0416,5.78202 33.7082,5.78202 32.5,4.5 Z M 4.5,11.5 C 9.83333,12.5 9.83333,13.5 4.5,14.5C 4.5,13.5 4.5,12.5 4.5,11.5 Z M 13.5,11.5 C 14.5,11.5 15.5,11.5 16.5,11.5C 16.5,12.5 16.5,13.5 16.5,14.5C 13.4331,14.8795 12.4331,13.8795 13.5,11.5 Z M 30.5,11.5 C 34.1021,11.678 34.1021,12.678 30.5,14.5C 29.4376,13.5754 29.4376,12.5754 30.5,11.5 Z M 4.5,20.5 C 9.83333,21.5 9.83333,22.5 4.5,23.5C 4.5,22.5 4.5,21.5 4.5,20.5 Z M 24.5,20.5 C 23.8333,21.5 23.1667,22.5 22.5,23.5C 21.596,22.791 21.2627,21.791 21.5,20.5C 22.5,20.5 23.5,20.5 24.5,20.5 Z M 33.5,25.5 C 33.1667,25.5 32.8333,25.5 32.5,25.5C 32.5299,24.5028 32.0299,23.8361 31,23.5C 29.4411,24.0294 27.9411,24.696 26.5,25.5C 25.537,25.0302 25.537,24.3635 26.5,23.5C 27.3382,23.1583 27.6716,22.4916 27.5,21.5C 29.4352,20.8505 31.4352,20.5172 33.5,20.5C 33.5,22.1667 33.5,23.8333 33.5,25.5 Z M 30.5,27.5 C 29.3065,28.2719 28.3065,29.2719 27.5,30.5C 25.6208,31.3414 23.6208,31.6747 21.5,31.5C 21.5,30.1667 21.5,28.8333 21.5,27.5C 23.143,27.4802 24.4763,28.1468 25.5,29.5C 26.914,28.376 28.414,27.376 30,26.5C 30.3988,26.7284 30.5654,27.0618 30.5,27.5 Z M 13.5,28.5 C 17.1021,28.678 17.1021,29.678 13.5,31.5C 12.4376,30.5754 12.4376,29.5754 13.5,28.5 Z M 32.5,29.5 C 33.0431,29.56 33.3764,29.8933 33.5,30.5C 32.7435,31.7733 32.0768,31.7733 31.5,30.5C 32.1667,30.5 32.5,30.1667 32.5,29.5 Z"/></g>
</svg>
