<svg width="30" height="30" viewBox="0 0 30 30" fill="none" xmlns="http://www.w3.org/2000/svg">
<g id="circle-dot-regular 1" clip-path="url(#clip0_600_2549)">
<path id="Vector" d="M27.1875 15C27.1875 11.7677 25.9035 8.66774 23.6179 6.38214C21.3323 4.09654 18.2323 2.8125 15 2.8125C11.7677 2.8125 8.66774 4.09654 6.38214 6.38214C4.09654 8.66774 2.8125 11.7677 2.8125 15C2.8125 18.2323 4.09654 21.3323 6.38214 23.6179C8.66774 25.9035 11.7677 27.1875 15 27.1875C18.2323 27.1875 21.3323 25.9035 23.6179 23.6179C25.9035 21.3323 27.1875 18.2323 27.1875 15ZM0 15C0 11.0218 1.58035 7.20644 4.3934 4.3934C7.20644 1.58035 11.0218 0 15 0C18.9782 0 22.7936 1.58035 25.6066 4.3934C28.4196 7.20644 30 11.0218 30 15C30 18.9782 28.4196 22.7936 25.6066 25.6066C22.7936 28.4196 18.9782 30 15 30C11.0218 30 7.20644 28.4196 4.3934 25.6066C1.58035 22.7936 0 18.9782 0 15ZM15 9.375C16.4918 9.375 17.9226 9.96763 18.9775 11.0225C20.0324 12.0774 20.625 13.5082 20.625 15C20.625 16.4918 20.0324 17.9226 18.9775 18.9775C17.9226 20.0324 16.4918 20.625 15 20.625C13.5082 20.625 12.0774 20.0324 11.0225 18.9775C9.96763 17.9226 9.375 16.4918 9.375 15C9.375 13.5082 9.96763 12.0774 11.0225 11.0225C12.0774 9.96763 13.5082 9.375 15 9.375Z" fill="black"/>
</g>
<defs>
<clipPath id="clip0_600_2549">
<rect width="30" height="30" fill="white"/>
</clipPath>
</defs>
</svg>
