<svg version="1.0" xmlns="http://www.w3.org/2000/svg"
 width="42.000000pt" height="42.000000pt" viewBox="0 0 42.000000 42.000000"
 preserveAspectRatio="xMidYMid meet">

<g transform="translate(0.000000,42.000000) scale(0.100000,-0.100000)"
fill="#000000" stroke="none">
<path d="M107 413 c-10 -9 -8 -55 1 -71 6 -9 35 -12 108 -10 107 3 114 8 100
64 -6 23 -9 24 -105 24 -54 0 -101 -3 -104 -7z"/>
<path d="M105 301 l-30 -18 0 -139 0 -139 135 0 135 0 0 139 0 139 -30 18
c-42 24 -168 24 -210 0z m125 -101 c0 -25 4 -30 25 -30 18 0 25 -5 25 -20 0
-15 -7 -20 -25 -20 -21 0 -25 -5 -25 -30 0 -23 -4 -30 -20 -30 -16 0 -20 7
-20 30 0 25 -4 30 -25 30 -18 0 -25 5 -25 20 0 15 7 20 25 20 21 0 25 5 25 30
0 23 4 30 20 30 16 0 20 -7 20 -30z"/>
</g>
</svg>
