<svg version="1.0" xmlns="http://www.w3.org/2000/svg"
 width="68.000000pt" height="71.000000pt" viewBox="0 0 68.000000 71.000000"
 preserveAspectRatio="xMidYMid meet">

<g transform="translate(0.000000,71.000000) scale(0.100000,-0.100000)"
fill="#000000" stroke="none">
<path d="M245 703 c-86 -21 -169 -88 -213 -171 -31 -57 -32 -65 -32 -172 0
-97 3 -119 23 -159 29 -60 100 -131 162 -161 44 -22 63 -25 155 -25 87 0 113
4 150 22 68 33 123 85 158 151 31 57 32 65 32 176 0 106 -2 116 -19 116 -17 0
-18 -9 -17 -102 1 -93 -2 -108 -26 -154 -30 -57 -87 -113 -150 -146 -62 -32
-194 -32 -258 1 -61 31 -116 86 -148 146 -22 43 -26 63 -26 135 0 72 4 93 26
136 31 60 93 118 157 148 38 17 63 21 144 20 86 -2 97 0 97 16 0 12 -10 20
-31 24 -36 7 -154 6 -184 -1z"/>
<path d="M497 622 c-47 -48 -57 -63 -57 -93 0 -29 -9 -44 -60 -94 -33 -33 -60
-67 -60 -77 0 -34 35 -18 95 42 50 51 65 60 95 60 30 0 45 9 94 59 64 65 69
91 17 91 -26 0 -30 4 -33 32 -5 50 -27 45 -91 -20z m72 -59 c10 -7 -44 -53
-61 -53 -25 0 -23 28 4 57 17 19 24 21 37 11 9 -7 18 -14 20 -15z"/>
<path d="M257 596 c-117 -43 -185 -162 -160 -281 42 -196 279 -270 418 -130
49 49 78 116 73 171 -2 31 -7 39 -23 39 -17 0 -21 -9 -26 -58 -22 -204 -304
-244 -384 -55 -51 124 29 263 162 277 49 5 58 9 58 26 0 16 -7 20 -40 22 -22
2 -57 -4 -78 -11z"/>
<path d="M305 503 c-61 -16 -105 -76 -105 -145 0 -81 58 -138 140 -138 75 0
137 52 142 121 3 29 -1 34 -19 37 -19 3 -23 -1 -23 -23 0 -18 -13 -40 -35 -62
-31 -31 -40 -35 -72 -30 -47 8 -82 43 -90 90 -5 32 -1 41 30 72 22 22 44 35
62 35 22 0 26 4 23 22 -3 24 -19 30 -53 21z"/>
</g>
</svg>
