<svg version="1.0" xmlns="http://www.w3.org/2000/svg"
 width="80.000000pt" height="80.000000pt" viewBox="0 0 80.000000 80.000000"
 preserveAspectRatio="xMidYMid meet">

<g transform="translate(0.000000,80.000000) scale(0.100000,-0.100000)"
fill="#000000" stroke="none">
<path d="M333 660 c-85 -51 -81 -179 6 -225 116 -60 239 71 171 182 -37 61
-116 81 -177 43z"/>
<path d="M120 478 c-47 -50 -9 -128 62 -128 28 0 42 7 57 26 27 34 27 64 0 98
-27 34 -88 37 -119 4z"/>
<path d="M567 482 c-23 -26 -22 -94 1 -115 23 -21 81 -22 110 -1 27 18 30 78
6 112 -20 29 -93 31 -117 4z"/>
<path d="M315 365 c-77 -27 -154 -142 -143 -216 l3 -24 223 -3 c250 -3 239 -6
227 73 -19 130 -177 217 -310 170z"/>
<path d="M130 313 c-57 -22 -110 -94 -110 -152 0 -33 14 -41 69 -41 l38 0 6
54 c3 29 15 72 26 94 12 23 21 44 21 47 0 6 -30 5 -50 -2z"/>
<path d="M620 318 c0 -2 11 -30 25 -63 13 -33 25 -77 25 -97 l0 -38 50 0 c59
0 71 15 58 72 -12 54 -35 84 -84 108 -34 17 -74 26 -74 18z"/>
</g>
</svg>
