<svg version="1.0" xmlns="http://www.w3.org/2000/svg"
    width="75.000000pt" height="55.000000pt" viewBox="0 0 75.000000 55.000000"
    preserveAspectRatio="xMidYMid meet">

    <g transform="translate(0.000000,55.000000) scale(0.100000,-0.100000)"
    fill="#000000" stroke="none">
    <path d="M251 535 c-91 -29 -182 -109 -230 -202 -27 -54 -26 -63 5 -125 34
    -67 105 -135 180 -173 55 -28 67 -30 169 -30 101 0 115 2 168 28 70 35 149
    111 182 177 31 61 31 69 -1 132 -34 67 -106 136 -180 172 -51 26 -72 30 -154
    33 -63 2 -110 -2 -139 -12z m255 -93 c58 -30 103 -70 135 -121 l29 -44 -23
    -40 c-27 -47 -81 -98 -139 -129 -61 -33 -204 -33 -264 -1 -59 32 -103 71 -135
    122 -26 41 -27 45 -13 72 34 67 104 126 183 156 53 20 175 12 227 -15z"/>
    <path d="M290 418 c-45 -31 -70 -82 -70 -143 0 -99 62 -165 155 -165 93 0 155
    66 155 165 0 99 -62 165 -155 165 -38 0 -61 -6 -85 -22z m141 -77 c21 -22 29
    -39 29 -66 0 -45 -45 -95 -85 -95 -40 0 -85 50 -85 95 0 45 45 95 85 95 16 0
    38 -12 56 -29z"/>
    </g>
</svg>
