<svg version="1.0" xmlns="http://www.w3.org/2000/svg"
 width="50.000000pt" height="50.000000pt" viewBox="0 0 50.000000 50.000000"
 preserveAspectRatio="xMidYMid meet">

<g transform="translate(0.000000,50.000000) scale(0.100000,-0.100000)"
fill="#000000" stroke="none">
<path d="M229 473 c0 -15 -2 -40 -3 -55 -1 -23 2 -28 21 -28 16 0 23 6 24 20
4 82 3 85 -19 88 -18 3 -22 -2 -23 -25z"/>
<path d="M31 426 c-10 -11 -4 -23 28 -58 23 -23 41 -47 41 -52 0 -5 11 1 24
13 l24 23 -36 31 c-20 18 -41 38 -45 44 -10 17 -22 16 -36 -1z"/>
<path d="M399 394 c-41 -42 -42 -45 -26 -61 16 -16 20 -15 62 27 50 50 53 55
27 69 -15 8 -27 2 -63 -35z"/>
<path d="M190 341 c-8 -6 -17 -8 -20 -6 -4 2 -24 -14 -46 -37 -37 -40 -38 -43
-40 -117 -1 -42 -4 -83 -5 -91 -3 -12 17 -16 121 -21 l125 -5 -140 -1 c-77 -1
-148 -4 -157 -8 -19 -7 -31 -32 -22 -46 3 -5 112 -9 245 -9 205 0 240 2 245
15 11 28 -16 45 -75 46 -31 1 -44 4 -30 6 21 3 28 11 31 33 3 17 0 27 -6 23
-6 -4 -6 1 -1 13 4 10 6 30 5 44 -2 14 -4 40 -4 58 -1 21 -5 31 -13 27 -7 -2
-13 0 -13 6 0 18 -61 67 -92 73 -44 9 -91 7 -108 -3z m60 -41 c0 -5 -12 -10
-27 -9 -25 0 -26 1 -8 9 27 12 35 12 35 0z m-70 -23 c0 -2 -10 -12 -22 -23
l-23 -19 19 23 c18 21 26 27 26 19z m-43 -79 c-3 -8 -6 -5 -6 6 -1 11 2 17 5
13 3 -3 4 -12 1 -19z m220 -134 c-3 -3 -12 -4 -19 -1 -8 3 -5 6 6 6 11 1 17
-2 13 -5z"/>
</g>
</svg>
