<svg version="1.0" xmlns="http://www.w3.org/2000/svg"
    width="56.000000pt" height="56.000000pt" viewBox="0 0 56.000000 56.000000"
    preserveAspectRatio="xMidYMid meet">

    <g transform="translate(0.000000,56.000000) scale(0.100000,-0.100000)"
    fill="#000000" stroke="none">
    <path d="M210 485 c0 -28 -5 -38 -25 -47 -19 -9 -28 -9 -37 0 -26 26 -53 13
    -76 -33 -28 -58 -28 -63 5 -97 l27 -28 -27 -28 c-33 -34 -33 -39 -5 -97 23
    -46 50 -59 76 -33 9 9 18 9 37 0 20 -9 25 -19 25 -47 l0 -35 70 0 70 0 0 35
    c0 28 5 38 25 47 19 9 28 9 37 0 26 -26 55 -13 77 33 27 57 26 63 -6 97 l-27
    28 27 28 c32 34 33 40 6 97 -22 46 -51 59 -77 33 -9 -9 -18 -9 -37 0 -20 9
    -25 19 -25 47 l0 35 -70 0 -70 0 0 -35z m120 -155 c43 -43 11 -120 -50 -120
    -38 0 -70 32 -70 70 0 17 9 39 20 50 11 11 33 20 50 20 17 0 39 -9 50 -20z"/>
    </g>
</svg>
